<?xml version="1.0" encoding="UTF-8" standalone="no" ?>
<!DOCTYPE svg PUBLIC "-//W3C//DTD SVG 1.1//EN" "http://www.w3.org/Graphics/SVG/1.1/DTD/svg11.dtd">
<svg xmlns="http://www.w3.org/2000/svg" xmlns:xlink="http://www.w3.org/1999/xlink" version="1.1" width="500" height="500" viewBox="0 0 500 500" xml:space="preserve">
<desc>Created with Fabric.js 4.6.0</desc>
<defs>
</defs>
<g transform="matrix(2.02 0 0 2.02 127.13 164.02)" id="HJHzAfX1zAauW6ddkZl0y"  >
<path style="stroke: rgb(114,122,141); stroke-width: 0; stroke-dasharray: none; stroke-linecap: butt; stroke-dashoffset: 0; stroke-linejoin: miter; stroke-miterlimit: 4; fill: rgb(247,47,58); fill-rule: nonzero; opacity: 1;" vector-effect="non-scaling-stroke"  transform=" translate(0, 0)" d="M -36.44315 -36.44315 L 36.44315 -36.44315 L 36.44315 36.44315 L -36.44315 36.44315 z" stroke-linecap="round" />
</g>
<g transform="matrix(1.57 0 0 1.51 128.5 164.02)" id="mUGkN88qR9ExgFGjCt502"  >
<path style="stroke: rgb(96,45,187); stroke-width: 0; stroke-dasharray: none; stroke-linecap: butt; stroke-dashoffset: 0; stroke-linejoin: miter; stroke-miterlimit: 4; fill: rgb(255,255,255); fill-rule: nonzero; opacity: 1;" vector-effect="non-scaling-stroke"  transform=" translate(0, 0)" d="M -36.44315 -36.44315 L 36.44315 -36.44315 L 36.44315 36.44315 L -36.44315 36.44315 z" stroke-linecap="round" />
</g>
<g transform="matrix(0.25 0 0 1.31 93.82 164.02)" id="I3NCnBVoa-SaX-C23mw8Q"  >
<path style="stroke: rgb(150,178,153); stroke-width: 0; stroke-dasharray: none; stroke-linecap: butt; stroke-dashoffset: 0; stroke-linejoin: miter; stroke-miterlimit: 4; fill: rgb(247,47,58); fill-rule: nonzero; opacity: 1;" vector-effect="non-scaling-stroke"  transform=" translate(0, 0)" d="M -36.44315 -36.44315 L 36.44315 -36.44315 L 36.44315 36.44315 L -36.44315 36.44315 z" stroke-linecap="round" />
</g>
<g transform="matrix(0.87 0 0 0.21 146.32 124.08)" id="y1h4XR949wP2_skLX88v-"  >
<path style="stroke: rgb(5,141,146); stroke-width: 0; stroke-dasharray: none; stroke-linecap: butt; stroke-dashoffset: 0; stroke-linejoin: miter; stroke-miterlimit: 4; fill: rgb(247,47,58); fill-rule: nonzero; opacity: 1;" vector-effect="non-scaling-stroke"  transform=" translate(0, 0)" d="M -36.44315 -36.44315 L 36.44315 -36.44315 L 36.44315 36.44315 L -36.44315 36.44315 z" stroke-linecap="round" />
</g>
<g transform="matrix(0.24 0 0 1.16 146.32 169.61)" id="6fXjbTA5QvUY6VKmjdXcj"  >
<path style="stroke: rgb(107,71,142); stroke-width: 0; stroke-dasharray: none; stroke-linecap: butt; stroke-dashoffset: 0; stroke-linejoin: miter; stroke-miterlimit: 4; fill: rgb(247,47,58); fill-rule: nonzero; opacity: 1;" vector-effect="non-scaling-stroke"  transform=" translate(0, 0)" d="M -36.44315 -36.44315 L 36.44315 -36.44315 L 36.44315 36.44315 L -36.44315 36.44315 z" stroke-linecap="round" />
</g>
<g transform="matrix(0.27 0 0 0.32 191.63 164.02)" id="7hdTXwOwSq2Tb1lNHoXtJ"  >
<path style="stroke: rgb(150,29,54); stroke-width: 0; stroke-dasharray: none; stroke-linecap: butt; stroke-dashoffset: 0; stroke-linejoin: miter; stroke-miterlimit: 4; fill: rgb(255,255,255); fill-rule: nonzero; opacity: 1;" vector-effect="non-scaling-stroke"  transform=" translate(0, 0)" d="M -36.44315 -36.44315 L 36.44315 -36.44315 L 36.44315 36.44315 L -36.44315 36.44315 z" stroke-linecap="round" />
</g>
<g transform="matrix(0.2 0 0 0.24 193.26 164.02)" id="FlOBBLuZ67I3y-eg_Wrg8"  >
<path style="stroke: rgb(212,240,105); stroke-width: 0; stroke-dasharray: none; stroke-linecap: butt; stroke-dashoffset: 0; stroke-linejoin: miter; stroke-miterlimit: 4; fill: rgb(0,0,0); fill-rule: nonzero; opacity: 1;" vector-effect="non-scaling-stroke"  transform=" translate(0, 0)" d="M -36.44313 -36.44313 L 36.44313 -36.44313 L 36.44313 36.44313 L -36.44313 36.44313 z" stroke-linecap="round" />
</g>
<g transform="matrix(0.25 0 0 0.24 93.82 100.12)" id="iyEQeODIlTLE3LSa_p2HR"  >
<path style="stroke: rgb(212,240,105); stroke-width: 0; stroke-dasharray: none; stroke-linecap: butt; stroke-dashoffset: 0; stroke-linejoin: miter; stroke-miterlimit: 4; fill: rgb(0,0,0); fill-rule: nonzero; opacity: 1;" vector-effect="non-scaling-stroke"  transform=" translate(0, 0)" d="M -36.44313 -36.44313 L 36.44313 -36.44313 L 36.44313 36.44313 L -36.44313 36.44313 z" stroke-linecap="round" />
</g>
</svg>